<?xml version="1.0" encoding="utf-8"?>
<!-- Generator: Adobe Illustrator 18.1.1, SVG Export Plug-In . SVG Version: 6.00 Build 0)  -->
<svg version="1.1" id="Layer_1" xmlns="http://www.w3.org/2000/svg" xmlns:xlink="http://www.w3.org/1999/xlink" x="0px" y="0px"
	 viewBox="0 0 155 155" enable-background="new 0 0 155 155" xml:space="preserve">
<path fill="#FAD10F" d="M154.6,59.2l-41.3-41.3c-0.5-0.5-1.4-0.5-1.9,0L94.9,34.4c-0.2,0.2-0.4,0.6-0.4,0.9c0,0.4,0.2,0.7,0.4,0.9
	l2.8,2.7l-18.1-1.3c-2.7-0.2-5.4,0.2-8,1l-13.9-0.3l2.3-2.2c0.3-0.2,0.4-0.6,0.4-0.9c0-0.4-0.1-0.7-0.4-0.9L43.5,17.9
	c-0.5-0.5-1.4-0.5-1.9,0L2.2,57.4l-1.8,1.8C0.1,59.4,0,59.7,0,60.1c0,0.4,0.1,0.7,0.4,0.9l16,15.7c0.5,0.5,1.3,0.5,1.8,0l2-1.9
	L20,78.6c-0.3,4.3,1.4,8.4,4.6,11.2l0.3,0.2l-0.4,0.5c-1.7,1.7-2.6,4-2.5,6.4c0,2.4,1,4.6,2.8,6.3c1.7,1.6,3.8,2.5,6.1,2.5
	c0.7,0,1.5-0.1,2.3-0.3c-0.2,0.8-0.3,1.4-0.2,2c0,2.4,1,4.6,2.8,6.3c1.7,1.6,3.8,2.5,6.1,2.5c0.7,0,1.5-0.1,2.3-0.3
	c-0.2,0.7-0.2,1.4-0.2,2c0,2.4,1,4.6,2.8,6.3c1.7,1.6,3.8,2.5,6.1,2.5c0.7,0,1.5-0.1,2.3-0.3c-0.2,0.7-0.2,1.4-0.2,2
	c0,2.4,1,4.6,2.7,6.3c1.7,1.6,3.8,2.5,6.1,2.5c2.4,0,4.7-1,6.4-2.7l0.3-0.3l0.8,0.8c1.7,1.7,3.9,2.6,6.3,2.6c2.3,0,4.5-0.9,6.1-2.5
	c1.7-1.7,2.7-3.9,2.7-6.3c0,0,0-0.1,0-0.1c1.6,1.3,3.6,2,5.6,2c2.3,0,4.5-0.9,6.2-2.5c1.7-1.7,2.7-3.9,2.7-6.3c0-0.3,0-0.5-0.1-0.7
	c1.3,0.7,2.7,1,4.1,1c2.3,0,4.5-0.9,6.2-2.5c1.7-1.7,2.7-3.9,2.7-6.3c0-1.1-0.2-2.2-0.6-3.3c0.3,0,0.7,0.1,1.1,0.1
	c2.3,0,4.5-0.9,6.2-2.5c1.7-1.7,2.7-3.9,2.7-6.3c0-2.4-0.9-4.7-2.6-6.4l-0.3-0.3l1.7-1.7c3.7-3.7,6.2-8.4,7.4-13.5l4.5-5.8l3.1,3
	c0.5,0.5,1.4,0.5,1.8,0l16-15.7c0.2-0.2,0.4-0.6,0.4-0.9C155,59.7,154.9,59.4,154.6,59.2z M82,81.6c-0.5,0.5-0.5,1.4,0.1,1.9
	l27.2,25.4c1.2,1.2,1.8,2.8,1.8,4.5c0,1.7-0.7,3.2-1.9,4.4c-1.2,1.1-2.7,1.7-4.3,1.7c-1.7,0-3.3-0.7-4.5-1.9l-1.7-1.6
	c-0.1-0.1-0.1-0.1-0.2-0.2c-0.1-0.1-0.2-0.2-0.3-0.3l-18-17c-0.5-0.5-1.4-0.5-1.9,0.1c-0.5,0.5-0.5,1.4,0.1,1.9l18.4,17.4
	c0.9,1.2,1.4,2.5,1.4,4c0,1.7-0.7,3.3-1.9,4.4c-1.2,1.1-2.7,1.7-4.3,1.7c-1.7,0-3.3-0.7-4.4-1.9l-6.1-6.1c-0.5-0.5-1.4-0.5-1.9,0
	c-0.5,0.5-0.5,1.4,0,1.9c1.2,1.2,4.1,5.1,4.1,6.8c0,1.7-0.7,3.2-1.9,4.4c-1.2,1.1-2.7,1.7-4.3,1.7c-1.7,0-3.3-0.7-4.4-1.9l-0.9-0.9
	c1.6-1.8,2.4-4,2.3-6.3c-0.1-2.5-1.2-4.8-3-6.4c-1.6-1.4-3.7-2.1-5.9-2.1c0,0-0.1,0-0.1,0c3-3.5,2.8-8.9-0.6-12.1
	c-1.7-1.6-3.9-2.5-6.2-2.5c-0.7,0-1.5,0.1-2.3,0.3c0.7-3-0.3-6.2-2.6-8.4c-1.6-1.6-3.8-2.4-6.1-2.4c-1.5,0-2.9,0.4-4.3,1.1
	c0.2-2.4-0.6-4.8-2.2-6.5c-1.7-1.8-4-2.9-6.5-2.9c-2.4,0-4.6,0.9-6.3,2.7l-1.7,1.7l0,0c-0.1-0.1-0.2-0.2-0.3-0.3
	c-2.6-2.3-3.9-5.6-3.7-9.1l0.4-6.2c0-0.1,0-0.3,0-0.4l32.1-31.1c0.1,0,0.1,0,0.2,0l11.3,0.2c-0.7,0.5-1.3,0.9-1.8,1.4L43.1,62.3
	c-1.8,1.6-2.9,3.8-3,6.3c-0.1,2.4,0.7,4.8,2.4,6.5c1.7,1.8,4,2.8,6.4,2.8c2.1,0,4.2-0.8,5.8-2.2l15.1-13.6c0.8-0.7,1.9-1.1,2.9-1.1
	c0.9,0,1.8,0.3,2.6,0.8c2.3,1.6,5,2.7,7.9,3c0,0.1,0.1,0.1,0.2,0.2L118.7,97c1.2,1.2,1.8,2.8,1.8,4.5c0,1.7-0.7,3.2-1.9,4.4
	c-1.2,1.1-2.7,1.7-4.3,1.7c-1.7,0-3.3-0.7-4.5-1.9L84.5,82.2l-0.7-0.6C83.3,81.1,82.4,81.1,82,81.6z M30.2,88.3
	c1.2-1.2,2.7-1.8,4.4-1.8c1.7,0,3.4,0.7,4.5,2c2.2,2.4,2.1,6.1-0.1,8.4l-3.9,4.3c-1.1,1.1-2.7,1.8-4.4,1.8c-1.6,0-3.2-0.6-4.3-1.7
	c-1.2-1.2-1.9-2.7-1.9-4.4c0-1.7,0.6-3.3,1.8-4.5L30.2,88.3z M37.3,102.9l5.9-6.2c1.2-1.2,2.8-1.9,4.5-1.9c1.6,0,3.1,0.6,4.4,1.8
	c2.4,2.3,2.5,6.2,0.2,8.7l-6.1,6.4c-1.1,1.1-2.7,1.8-4.4,1.8c-1.6,0-3.2-0.6-4.3-1.7c-1.2-1.2-1.9-2.7-1.9-4.4
	C35.4,105.7,36.1,104.1,37.3,102.9z M48.2,113.3l5.8-6.1c1.2-1.3,2.8-2,4.6-2c1.6,0,3.2,0.6,4.4,1.8c2.4,2.3,2.5,6.2,0.2,8.7l-3,3.2
	c-0.5,0.3-0.9,0.7-1.3,1.1l-1.6,1.9l-0.2,0.2c-1.1,1.1-2.7,1.8-4.4,1.8c-1.6,0-3.2-0.6-4.3-1.7c-1.2-1.2-1.9-2.7-1.9-4.4
	C46.3,116.1,47,114.6,48.2,113.3z M59.2,123.7l2.7-2.9c1-0.7,2.2-1.1,3.5-1.1c1.5,0,3,0.6,4.2,1.6c1.3,1.2,2.1,2.8,2.1,4.5
	s-0.6,3.4-1.8,4.7l-1.9,2c-1.1,1.1-2.7,1.8-4.5,1.8c-1.6,0-3.2-0.6-4.3-1.7c-1.2-1.2-1.9-2.7-1.9-4.4
	C57.3,126.6,57.9,125,59.2,123.7z M118.2,93L87.1,64.9c3.9-0.4,7.6-2.2,10.5-5c0.2-0.3,0.4-0.6,0.4-0.9c0-0.4-0.1-0.7-0.4-0.9
	c-0.5-0.5-1.4-0.5-1.9,0c-2.8,2.8-6.5,4.4-10.4,4.4c-3,0-5.9-0.9-8.4-2.7c-1.2-0.8-2.6-1.3-4.1-1.3c-1.7,0-3.4,0.6-4.7,1.7L53,73.8
	c-1.1,1-2.6,1.5-4,1.5c-1.7,0-3.3-0.7-4.5-2c-1.2-1.2-1.8-2.9-1.7-4.6c0.1-1.7,0.8-3.3,2.1-4.4l21.6-19.6c1.7-1.5,3.6-2.6,5.7-3.4
	c2.3-0.8,4.7-1.2,7.2-1l20.7,1.5c0.1,0,0.3,0,0.4-0.1L131.7,72l-4.8,6.2c-0.1,0.2-0.2,0.3-0.2,0.5c-1,4.7-3.3,9-6.7,12.5L118.2,93z
	 M57.3,35.3L17.4,74L3.2,60.1l39.4-39.4L57.3,35.3z M151.8,60.1L137.6,74L97.7,35.3l14.7-14.7L151.8,60.1z"/>
</svg>
