<?xml version="1.0" encoding="utf-8"?>
<!-- Generator: Adobe Illustrator 18.1.1, SVG Export Plug-In . SVG Version: 6.00 Build 0)  -->
<svg version="1.1" id="Layer_1" xmlns="http://www.w3.org/2000/svg" xmlns:xlink="http://www.w3.org/1999/xlink" x="0px" y="0px"
	 viewBox="0 0 100 100" enable-background="new 0 0 100 100" xml:space="preserve">
<g>
	<path fill="#FAD10F" d="M94.4,45.9c0.2-0.5,0.3-1,0.3-1.5v-9.8c0-1-0.4-2-1.3-2.9c2.6-1.3,4.3-3,4.3-5v-9.8
		c0-5.8-13.4-8.9-26.1-8.9C59,8,45.6,11.1,45.6,16.9v9.8c0,1.1,0.5,2,1.3,2.9c-3.5,1.8-4.3,3.7-4.3,5v9.8c0,2.3,2.2,4.2,5.6,5.6
		c-0.2,0.5-0.3,1-0.3,1.5v9.8c0,5.8,13.4,8.9,26.1,8.9c12.6,0,26.1-3.1,26.1-8.9v-9.8C100,49.4,98,47.4,94.4,45.9z M50,48.7
		c0-0.1,0-0.1,0-0.2V41c1.4,0.5,3,0.9,4.6,1.2c0,0.1-0.1,0.2-0.1,0.4V50c0,0,0,0,0,0C52.9,49.6,51.4,49.2,50,48.7z M56.6,42.6
		c1.5,0.2,3,0.5,4.6,0.6V51c-1.7-0.2-3.2-0.4-4.7-0.6c0.1-0.1,0.1-0.3,0.1-0.4L56.6,42.6C56.6,42.6,56.6,42.6,56.6,42.6z M63.1,43.3
		c1.5,0.1,3,0.2,4.6,0.2v7.8c0,0,0,0,0,0c-1.6,0-3.1-0.1-4.6-0.2V43.3z M69.6,51.3v-7.8c1.5,0,3.1-0.1,4.6-0.2v7.8
		C72.7,51.3,71.2,51.3,69.6,51.3C69.6,51.3,69.6,51.3,69.6,51.3z M76.1,43.2c1.6-0.2,3.1-0.4,4.6-0.6c0,0,0,0,0,0V50
		c0,0.1,0,0.3,0.1,0.4c-1.5,0.3-3,0.5-4.7,0.6V43.2z M82.6,42.2c1.7-0.3,3.2-0.8,4.6-1.2v7.5c0,0.1,0,0.2,0,0.2
		c-1.3,0.5-2.9,0.9-4.6,1.3c0,0,0,0,0,0v-7.4C82.6,42.4,82.6,42.3,82.6,42.2z M89.2,40.3c1.5-0.6,2.7-1.3,3.6-2.1v6.3
		c0,0.4-0.2,0.8-0.5,1.3c0,0,0,0-0.1,0.1c-0.6,0.8-1.6,1.5-3.1,2.2V40.3z M49.3,29.2c-0.1-0.1-0.1-0.1-0.2-0.2
		c-1-0.8-1.6-1.6-1.6-2.3v-6.3c0.9,0.8,2.2,1.5,3.6,2.1v7.7C50.5,29.9,49.8,29.6,49.3,29.2z M53.1,30.8v-7.5c1.4,0.5,3,0.9,4.6,1.2
		c0,0.1-0.1,0.2-0.1,0.4v7.4c0,0,0,0,0,0c-1.7-0.4-3.3-0.8-4.6-1.3C53.1,30.9,53.1,30.9,53.1,30.8z M59.6,24.9
		c1.5,0.2,3,0.5,4.6,0.6v7.8c-1.7-0.2-3.2-0.4-4.7-0.6c0.1-0.1,0.1-0.3,0.1-0.4L59.6,24.9L59.6,24.9z M66.1,25.6
		c1.5,0.1,3,0.2,4.6,0.2v7.8c0,0,0,0,0,0c-1.6,0-3.1-0.1-4.6-0.2V25.6z M72.6,33.6v-7.8c1.5,0,3.1-0.1,4.6-0.2v7.8
		C75.7,33.6,74.2,33.6,72.6,33.6C72.6,33.6,72.6,33.6,72.6,33.6z M79.1,25.5c1.6-0.2,3.1-0.4,4.6-0.6l0,0v7.4c0,0.1,0,0.3,0.1,0.4
		c-1.5,0.3-3,0.5-4.7,0.6V25.5z M85.6,24.5c1.7-0.3,3.2-0.8,4.6-1.2v7.5c0,0.1,0,0.2,0,0.2c-1.3,0.5-2.9,0.9-4.6,1.3c0,0,0,0,0,0
		v-7.4C85.6,24.7,85.6,24.6,85.6,24.5z M92.2,30.2v-7.7c1.5-0.6,2.7-1.3,3.6-2.1v6.3C95.8,27.9,94.5,29.1,92.2,30.2z M71.7,10
		c14.2,0,24.1,3.7,24.1,7c0,3.3-9.9,7-24.1,7c-14.2,0-24.1-3.7-24.1-7C47.5,13.6,57.4,10,71.7,10z M48.5,31c4.6,3,14.1,4.6,23.1,4.6
		c7.3,0,14.8-1,19.9-3c0.6,0.5,1.3,1.3,1.3,2c0,3.3-9.9,7-24.1,7c-14.2,0-24.1-3.7-24.1-7C44.5,33.4,46,32.1,48.5,31z M44.5,44.4
		v-6.3c0.9,0.8,2.2,1.5,3.6,2.1v7.7C45.8,46.8,44.5,45.6,44.5,44.4z M68.7,53.3c10.1,0,20.8-2,24.6-5.8c3,1.2,4.8,2.7,4.8,4
		c0,3.3-9.9,7-24.1,7c-14.2,0-24.1-3.7-24.1-7c0-0.3,0.1-0.5,0.2-0.8C55.1,52.4,62,53.3,68.7,53.3z M55.4,57.9
		c1.4,0.5,3,0.9,4.6,1.2c0,0.1-0.1,0.2-0.1,0.4v7.4c0,0,0,0,0,0c-1.7-0.4-3.3-0.8-4.6-1.3c0-0.1,0-0.1,0-0.2V57.9z M61.9,59.5
		c1.5,0.2,3,0.5,4.6,0.6v7.8c-1.7-0.2-3.2-0.4-4.7-0.6c0.1-0.1,0.1-0.3,0.1-0.4L61.9,59.5L61.9,59.5z M68.4,60.2
		c1.5,0.1,3,0.2,4.6,0.2v7.8c0,0,0,0,0,0c-1.6,0-3.1-0.1-4.6-0.2V60.2z M74.9,68.2v-7.8c1.5,0,3.1-0.1,4.6-0.2v7.8
		C78,68.2,76.5,68.2,74.9,68.2C74.9,68.2,74.9,68.2,74.9,68.2z M81.4,60.1c1.6-0.2,3.1-0.4,4.6-0.6l0,0v7.4c0,0.1,0,0.3,0.1,0.4
		c-1.5,0.3-3,0.5-4.7,0.6V60.1z M87.9,59.1c1.7-0.3,3.2-0.8,4.6-1.2v7.5c0,0.1,0,0.2,0,0.2c-1.3,0.5-2.9,0.9-4.6,1.3c0,0,0,0,0,0
		v-7.4C87.9,59.3,87.9,59.2,87.9,59.1z M49.8,61.3V55c0.9,0.8,2.2,1.5,3.6,2.1v7.7C51.1,63.7,49.8,62.5,49.8,61.3z M94.4,64.8v-7.7
		c1.5-0.6,2.7-1.3,3.6-2.1v6.3C98.1,62.5,96.8,63.7,94.4,64.8z"/>
	<path fill="#FAD10F" d="M26.1,64.4C13.4,64.4,0,67.5,0,73.3v9.8C0,88.9,13.4,92,26.1,92c12.6,0,26.1-3.1,26.1-8.9v-9.8
		C52.1,67.5,38.7,64.4,26.1,64.4z M26.1,66.3c14.2,0,24.1,3.7,24.1,7c0,3.3-9.9,7-24.1,7c-14.2,0-24.1-3.7-24.1-7
		C1.9,70,11.8,66.3,26.1,66.3z M7.5,79.7c1.4,0.5,3,0.9,4.6,1.2c0,0.1-0.1,0.2-0.1,0.4v7.4c0,0,0,0,0,0c-1.7-0.4-3.3-0.8-4.6-1.3
		c0-0.1,0-0.1,0-0.2V79.7z M14,81.2c1.5,0.2,3,0.5,4.6,0.6v7.8c-1.7-0.2-3.2-0.4-4.7-0.6c0.1-0.1,0.1-0.3,0.1-0.4L14,81.2
		C14,81.2,14,81.2,14,81.2z M20.5,82c1.5,0.1,3,0.2,4.6,0.2V90c0,0,0,0,0,0c-1.6,0-3.1-0.1-4.6-0.2V82z M27,90v-7.8
		c1.5,0,3.1-0.1,4.6-0.2v7.8C30.1,89.9,28.6,90,27,90C27,90,27,90,27,90z M33.5,81.8c1.6-0.2,3.1-0.4,4.6-0.6c0,0,0,0,0,0v7.4
		c0,0.1,0,0.3,0.1,0.4c-1.5,0.3-3,0.5-4.7,0.6V81.8z M40,80.9c1.7-0.3,3.2-0.8,4.6-1.2v7.5c0,0.1,0,0.2,0,0.2
		c-1.3,0.5-2.9,0.9-4.6,1.3c0,0,0,0,0,0v-7.4C40.1,81.1,40,81,40,80.9z M1.9,83.1v-6.3c0.9,0.8,2.2,1.5,3.6,2.1v7.7
		C3.2,85.5,1.9,84.3,1.9,83.1z M46.6,86.6v-7.7c1.5-0.6,2.7-1.3,3.6-2.1v6.3C50.2,84.3,48.9,85.5,46.6,86.6z"/>
</g>
</svg>
