<?xml version="1.0" encoding="utf-8"?>
<!-- Generator: Adobe Illustrator 18.1.1, SVG Export Plug-In . SVG Version: 6.00 Build 0)  -->
<svg version="1.1" id="Layer_1" xmlns="http://www.w3.org/2000/svg" xmlns:xlink="http://www.w3.org/1999/xlink" x="0px" y="0px"
	 viewBox="0 0 155 155" enable-background="new 0 0 155 155" xml:space="preserve">
<g>
	<path fill="#FAD10F" d="M155,151.5L106.6,103c10.1-11,16.3-25.5,16.3-41.6C122.9,27.6,95.3,0,61.4,0C27.6,0,0,27.6,0,61.4
		c0,33.9,27.6,61.4,61.4,61.4c16,0,30.6-6.2,41.6-16.3l48.4,48.4L155,151.5z M5,61.4C5,30.3,30.3,5,61.4,5
		c31.1,0,56.4,25.3,56.4,56.4s-25.3,56.4-56.4,56.4C30.3,117.9,5,92.6,5,61.4z"/>
	<path fill="none" stroke="#FAD10F" stroke-width="4.8764" stroke-miterlimit="10" d="M22,61.5c0-21.6,17.5-39,39-39"/>
	<path fill="none" stroke="#010101" stroke-width="4.8764" stroke-miterlimit="10" d="M61.1,100.5"/>
</g>
</svg>
